<?xml version="1.0" encoding="iso-8859-1"?>
<!-- Generator: Adobe Illustrator 19.0.0, SVG Export Plug-In . SVG Version: 6.00 Build 0)  -->
<svg version="1.1" id="Layer_1" xmlns="http://www.w3.org/2000/svg" xmlns:xlink="http://www.w3.org/1999/xlink" x="0px" y="0px"
	 viewBox="0 0 512 512" style="enable-background:new 0 0 512 512;" xml:space="preserve">
<g>
	<g>
		<polygon points="465.006,25.023 438.898,45.924 412.757,25.03 381.719,49.84 391.505,62.082 412.757,45.096 438.906,65.996 
			465.004,45.102 486.204,62.077 496,49.843 		"/>
	</g>
</g>
<g>
	<g>
		<polygon points="109.74,35.472 83.634,56.373 57.491,35.478 26.454,60.289 36.24,72.531 57.491,55.545 83.641,76.445 
			109.739,55.551 130.938,72.526 140.735,60.292 		"/>
	</g>
</g>
<g>
	<g>
		<polygon points="287.373,77.268 261.265,98.169 235.124,77.274 204.086,102.084 213.873,114.327 235.124,97.341 261.274,118.241 
			287.371,97.347 308.571,114.322 318.368,102.088 		"/>
	</g>
</g>
<g>
	<g>
		<rect x="73.143" y="429.507" width="31.347" height="15.673"/>
	</g>
</g>
<g>
	<g>
		<rect x="167.184" y="460.854" width="31.347" height="15.673"/>
	</g>
</g>
<g>
	<g>
		<rect x="20.898" y="471.303" width="31.347" height="15.673"/>
	</g>
</g>
<g>
	<g>
		<rect x="250.775" y="471.303" width="31.347" height="15.673"/>
	</g>
</g>
<g>
	<g>
		<rect x="250.775" y="419.058" width="31.347" height="15.673"/>
	</g>
</g>
<g>
	<g>
		<rect x="365.714" y="439.956" width="31.347" height="15.673"/>
	</g>
</g>
<g>
	<g>
		<rect x="449.306" y="471.303" width="31.347" height="15.673"/>
	</g>
</g>
<g>
	<g>
		<path d="M415.347,382.491v-57.469h60.082c10.082,0,18.286-8.203,18.286-18.286v-62.694c0-10.082-8.204-18.286-18.286-18.286
			h-20.898c-10.082,0-18.286,8.203-18.286,18.286v28.735h-20.898v-128c0-10.082-8.203-18.286-18.286-18.286h-31.347
			c-10.082,0-18.286,8.203-18.286,18.286v86.204h-20.898v-28.735c0-10.082-8.204-18.286-18.286-18.286h-20.898
			c-10.082,0-18.286,8.203-18.286,18.286v62.694c0,10.082,8.203,18.286,18.286,18.286h60.082v99.265H164.571v-99.265h60.082
			c10.082,0,18.286-8.203,18.286-18.286v-62.694c0-10.082-8.203-18.286-18.286-18.286h-20.898c-10.082,0-18.286,8.203-18.286,18.286
			v28.735h-20.898v-86.204c0-10.082-8.203-18.286-18.286-18.286h-31.347c-10.082,0-18.286,8.203-18.286,18.286v128H75.755v-28.735
			c0-10.082-8.203-18.286-18.286-18.286H36.571c-10.082,0-18.286,8.203-18.286,18.286v62.694c0,10.082,8.203,18.286,18.286,18.286
			h60.082v57.469H0v15.673h512v-15.673H415.347z M415.347,288.45h36.571v-44.408c0-1.416,1.196-2.612,2.612-2.612h20.898
			c1.416,0,2.612,1.196,2.612,2.612v62.694c0,1.416-1.196,2.612-2.612,2.612h-60.082V288.45z M164.571,246.654h36.571v-44.408
			c0-1.416,1.196-2.612,2.612-2.612h20.898c1.416,0,2.612,1.196,2.612,2.612v62.694c0,1.416-1.196,2.612-2.612,2.612h-60.082
			V246.654z M96.653,309.348H36.571c-1.416,0-2.612-1.196-2.612-2.612v-62.694c0-1.416,1.196-2.612,2.612-2.612h20.898
			c1.416,0,2.612,1.196,2.612,2.612v44.408h36.571V309.348z M148.898,382.491h-36.571V144.777c0-1.416,1.196-2.612,2.612-2.612
			h31.347c1.416,0,2.612,1.196,2.612,2.612V382.491z M347.429,267.552h-60.082c-1.416,0-2.612-1.196-2.612-2.612v-62.694
			c0-1.416,1.196-2.612,2.612-2.612h20.898c1.416,0,2.612,1.196,2.612,2.612v44.408h36.571V267.552z M399.673,382.491h-36.571
			V144.777c0-1.416,1.196-2.612,2.612-2.612h31.347c1.416,0,2.612,1.196,2.612,2.612V382.491z"/>
	</g>
</g>
<g>
</g>
<g>
</g>
<g>
</g>
<g>
</g>
<g>
</g>
<g>
</g>
<g>
</g>
<g>
</g>
<g>
</g>
<g>
</g>
<g>
</g>
<g>
</g>
<g>
</g>
<g>
</g>
<g>
</g>
</svg>
