<?xml version="1.0" encoding="iso-8859-1"?>
<!-- Generator: Adobe Illustrator 19.0.0, SVG Export Plug-In . SVG Version: 6.00 Build 0)  -->
<svg version="1.1" id="Layer_1" xmlns="http://www.w3.org/2000/svg" xmlns:xlink="http://www.w3.org/1999/xlink" x="0px" y="0px"
	 viewBox="0 0 512 512" style="enable-background:new 0 0 512 512;" xml:space="preserve">
<g>
	<g>
		<g>
			<path d="M245.221,247.916c-4.466,0-8.084,3.619-8.084,8.084c0,4.466,3.618,8.084,8.084,8.084h32.337
				c4.466,0,8.084-3.619,8.084-8.084c0-4.466-3.618-8.084-8.084-8.084H245.221z"/>
			<path d="M120.81,223.124h31.186v35.571H72.759c-4.466,0-8.084,3.618-8.084,8.084c0,4.466,3.619,8.084,8.084,8.084h87.321
				c4.466,0,8.084-3.618,8.084-8.084v-43.655h31.186c17.576,0,34.247-6.188,47.382-17.311l124.585,54.697
				c4.085,1.795,8.857-0.065,10.652-4.153c1.795-4.087-0.065-8.857-4.153-10.652l-119.377-52.41
				c12.468-16.868,17.122-38.085,12.774-58.739L259.944,81.03c-4.807-22.839-17.438-43.518-35.562-58.226
				C206.257,8.099,183.421,0,160.08,0c-23.341,0-46.178,8.099-64.302,22.805C77.654,37.513,65.024,58.19,60.216,81.031
				l-11.268,53.526c-4.581,21.756,0.827,44.134,14.835,61.4C77.791,213.223,98.577,223.124,120.81,223.124z M64.769,137.887
				l11.268-53.526c8.319-39.515,43.663-68.193,84.043-68.193c40.38,0,75.725,28.678,84.042,68.193l11.269,53.526
				c3.571,16.966-0.646,34.419-11.57,47.883c-10.924,13.463-27.134,21.185-44.471,21.185h-31.186v-69.524
				c0-4.466-3.618-8.084-8.084-8.084c-4.466,0-8.084,3.619-8.084,8.084v69.524H120.81c-17.339,0-33.548-7.722-44.474-21.186
				C65.412,172.306,61.196,154.854,64.769,137.887z"/>
			<path d="M191.326,301.811c-4.466,0-8.084,3.618-8.084,8.084c0,4.466,3.618,8.084,8.084,8.084h32.337
				c4.466,0,8.084-3.618,8.084-8.084c0-4.466-3.618-8.084-8.084-8.084H191.326z"/>
			<path d="M342.437,167.07c1.85,0,3.71-0.632,5.23-1.922c3.403-2.89,3.818-7.993,0.928-11.396
				c-12.792-15.061-19.838-34.257-19.838-54.048c0-46.062,37.474-83.537,83.536-83.537c15.693,0,30.984,4.374,44.221,12.649
				c3.786,2.368,8.774,1.218,11.14-2.57c2.367-3.786,1.217-8.774-2.57-11.14C449.276,5.225,431.022,0,412.295,0
				c-54.978,0-99.705,44.727-99.705,99.705c0,23.622,8.41,46.534,23.681,64.515C337.871,166.102,340.146,167.07,342.437,167.07z"/>
			<path d="M83.538,312.589c-4.466,0-8.084,3.618-8.084,8.084c0,4.466,3.618,8.084,8.084,8.084h32.337
				c4.466,0,8.084-3.618,8.084-8.084c0-4.466-3.618-8.084-8.084-8.084H83.538z"/>
			<path d="M412.294,183.242c-15.693,0-30.985-4.375-44.222-12.651c-3.784-2.363-8.773-1.217-11.141,2.569
				c-2.367,3.787-1.217,8.774,2.569,11.141c15.809,9.884,34.065,15.11,52.793,15.11c54.978,0,99.705-44.727,99.705-99.705
				c0-23.626-8.412-46.54-23.689-64.522c-2.89-3.402-7.99-3.817-11.396-0.926c-3.402,2.89-3.817,7.993-0.926,11.395
				c12.796,15.06,19.843,34.257,19.843,54.052C495.831,145.767,458.356,183.242,412.294,183.242z"/>
			<path d="M412.294,43.116c-31.203,0-56.588,25.387-56.588,56.589s25.387,56.589,56.589,56.589s56.589-25.387,56.589-56.589
				S443.497,43.116,412.294,43.116z M412.294,140.126c-22.289,0-40.421-18.132-40.421-40.421s18.132-40.421,40.421-40.421
				s40.421,18.132,40.421,40.421S434.582,140.126,412.294,140.126z"/>
			<path d="M471.578,247.916h-14.771c-5.629,0-11.097,1.147-16.249,3.409L24.174,434.13C9.49,440.577,0.001,455.104,0.001,471.141
				v0.438c0,4.466,3.618,8.084,8.084,8.084c4.466,0,8.084-3.618,8.084-8.084v-0.438c0-9.622,5.692-18.339,14.503-22.208
				l416.383-182.805c3.091-1.356,6.372-2.045,9.751-2.045h14.771c13.372,0,24.253,10.88,24.253,24.253v2.279l-92.418,40.575
				c-4.088,1.795-5.948,6.564-4.153,10.652c1.795,4.09,6.565,5.949,10.652,4.153l85.919-37.721v104.907l-54.548,23.949
				c-4.088,1.795-5.948,6.564-4.153,10.652c1.795,4.09,6.566,5.948,10.652,4.153l48.049-21.094v40.738
				c0,4.466,3.618,8.084,8.084,8.084c4.466,0,8.084-3.618,8.084-8.084V288.337C511.999,266.048,493.867,247.916,471.578,247.916z"/>
			<path d="M414.923,448.705l-57.417,25.209c-4.088,1.795-5.948,6.564-4.153,10.652c1.33,3.031,4.295,4.836,7.406,4.836
				c1.085,0,2.189-0.22,3.246-0.684l57.417-25.209c4.088-1.795,5.948-6.564,4.153-10.652
				C423.78,448.769,419.008,446.91,414.923,448.705z"/>
			<path d="M371.317,345.284L87.247,469.999c-4.088,1.795-5.948,6.564-4.153,10.652c1.33,3.031,4.295,4.837,7.406,4.837
				c1.085,0,2.189-0.22,3.246-0.685l284.07-124.715c4.088-1.795,5.948-6.564,4.153-10.652
				C380.175,345.347,375.404,343.488,371.317,345.284z"/>
			<path d="M51.201,382.653h32.337c4.466,0,8.084-3.619,8.084-8.084s-3.618-8.084-8.084-8.084H51.201
				c-4.466,0-8.084,3.619-8.084,8.084S46.735,382.653,51.201,382.653z"/>
			<path d="M503.915,495.832H180.547c-4.466,0-8.084,3.619-8.084,8.084c0,4.466,3.618,8.084,8.084,8.084h323.367
				c4.466,0,8.084-3.618,8.084-8.084C511.999,499.45,508.38,495.832,503.915,495.832z"/>
			<path d="M291.655,441.304l-65.359,28.695c-4.088,1.795-5.948,6.564-4.153,10.652c1.33,3.031,4.295,4.837,7.406,4.837
				c1.085,0,2.189-0.22,3.246-0.685l65.359-28.695c4.089-1.795,5.948-6.564,4.153-10.652
				C300.512,441.367,295.741,439.509,291.655,441.304z"/>
			<path d="M8.085,414.989c4.466,0,8.084-3.618,8.084-8.084V148.21c0-10.264,6.496-19.456,16.167-22.875
				c4.209-1.489,6.416-6.107,4.927-10.317c-1.49-4.208-6.105-6.415-10.317-4.927C10.83,115.79,0.001,131.109,0.001,148.21v258.695
				C0.001,411.371,3.62,414.989,8.085,414.989z"/>
			<path d="M147.402,495.832H8.085c-4.466,0-8.084,3.619-8.084,8.084c0,4.466,3.618,8.084,8.084,8.084h139.317
				c4.466,0,8.084-3.618,8.084-8.084C155.486,499.45,151.868,495.832,147.402,495.832z"/>
			<path d="M476.904,368.804c-1.795-4.09-6.565-5.948-10.652-4.153l-150.044,65.872c-4.088,1.795-5.948,6.564-4.153,10.652
				c1.33,3.031,4.295,4.837,7.406,4.837c1.085,0,2.189-0.22,3.246-0.685l150.044-65.872
				C476.839,377.66,478.698,372.89,476.904,368.804z"/>
		</g>
	</g>
</g>
<g>
</g>
<g>
</g>
<g>
</g>
<g>
</g>
<g>
</g>
<g>
</g>
<g>
</g>
<g>
</g>
<g>
</g>
<g>
</g>
<g>
</g>
<g>
</g>
<g>
</g>
<g>
</g>
<g>
</g>
</svg>
