<svg width="805" height="639" fill="none" xmlns="http://www.w3.org/2000/svg"><g opacity=".02" fill-rule="evenodd" clip-rule="evenodd" fill="#333"><path d="M318.255 1017.03l-16.828 28.57c-6.003-18.82-16.885-38.36-23.897-52.166-13.463 27.806-34.798 28.366-55.329 28.516 4.544-66.628-79.057-133.629-42.314-209.63 7.33-15.211 2.58-33.809-13.257-41.78-56.096-28.514-30.124 89.772-86.181 93.326 10.732-13.415 14.79-41.499 16.398-43.931-11.93 3.106-40.5 21.255-53.328-2.002 32.76-17.849 42.184-44.698 47.326-71.66 6.526-34.108 9.517-49.9 16.155-63.932 6.9-14.987 17.97-27.972 41.642-58.694-5.61.861-68.717 14.145-82.853 7.521 109.068-67.019 84.479-152.263 250.858-228.245-43.605-32.406-88.238-58.244-56.245-120.194 45.568 54.784 132.161 35.83 178.944 10.366-46.222-9.262-105.758-49.975-119.931-95.328 17.445-2.695 39.995 16.203 52.991 25.015 6.245-16.727 8.732-36.204 29.001-40.433-27.019 57.946 26.402 88.069 77.356 88.312 7.872 0 40.837-3.274 40.837-3.274-5.236-10.852-26.552-40.451-11.051-52.445 12.453 11.713 27.3 21.049 40.856 31.434 99.065 76.711-47.101 147.847-106.899 180.122-93.847 50.742-68.735 111.082-29.525 126.518-.168 6.867-4.375 9.879-10.882 11.993-27.412 9.168-53.16-10.403-75.018-22.957 1.327 37.869-1.253 74.261 40.557 95.104l-28.833 10.552c24.794 18.823 32.329 28.814 62.191 32.705-13.949 6.755-31.245 6.643-46.054 8.027 3.739 10.497 6.824 24.679 14.659 34.09-61.106 7.241-85.545-27.654-104.431-26.213-40.295 2.994-37.789 78.901 61.387 79.013l-10.284 16.97s18.811 10.983 35.995 13.097c-6.582 5.333-12.958 12.536-18.493 18.037l15.838 13.64c-40.464 7.278-51.945-35.812-78.197-15.025-40.034 31.751 48.26 98.79 132.927 88.78-7.124 9.112-26.982 22.508-35.602 29.487 69.016 65.224 34.966 126.614 63.35 171.594-59.461-3.95-103.533-47.64-113.836-94.88m77.561-73.346c19.148-15.23 34.966-22.826 34.219-59.554-28.74 14.668-110.303 13.901-144.371-33.043-9.63-13.321.654-20.038 9.985-9.542 23.298 26.456 66.492 14.463 82.254 6.811-2.487-9.056-9.499-20.918-15.389-25.989 5.89-5.837 22.551-14.444 26.01-29.337-8.957-4.846-43.549-8.307-43.549-8.307 5.572-5.314 12.491-12.817 8.359-32.631-35.341 10.871-79.001-3.873-88.93-16.989-9.761-12.854.224-24.922 8.377-16.446 17.614 18.542 104.43 39.74 136.741 7.54-12.004-3.293-25.224-14.032-27.636-20.656 29.88-2.993 53.739-20.656 55.684-42.659-16.529 0-47.756-1.197-58.358-9.205 14.342-5.295 23.355-10.497 27.88-26.531-54.656-3.312-58.975-43.932-59.256-50.667 35.565 20.543 98.223 11.45 82.03-39.161-29.543-1.571-59.423-49.525 22.008-93.625 73.99-40.04 158.189-83.26 150.784-154.434-4.861-45.484-79.804-76.58-89.303-99.631-31.264 14.893-37.603 32.181-23.486 61.144 0 0-69.632 6.942-75.13-35.96-2.412-19.253 10.434-37.271 24.215-51.004-7.798 0-60.303-14.052-76.122 28.738-29.468-20.094-54.599-19.365-74.438 1.834 31.638 18.822 51.234 83.241 103.533 102.27-37.21 20.207-97.363 11.712-132.478-50.274-33.209 50.087-52.319 99.668 18.885 152.599C148.698 458.043 149.633 570.847 36.881 624.62c11.462 30.722 35.583 30.722 66.286 25.932C54.402 713.961 95.95 780.27 18.8 807.399c7.199 25.839 21.69 46.439 50.186 38.899-8.115 12.648-13.444 12.367-26.047 26.269 42.184 26.587 92.221 7.315 103.552-77.947 2.039-15.211 23-5.706 15.726 9.224-48.093 99.52 73.522 174.36 30.497 247.366 37.976-1.59 66.828-4.53 82.703-17.38 7.723 15.32 12.341 30.5 10.696 45.45 20.942-4.25 28.59-16.71 30.029-30.86 13.744 40.02 62.827 82.85 141.417 82.85-41.679-59.37-2.88-119.67-61.743-187.586"/><path d="M209.43 779.053c14.304 14.95 31.694 16.484 64.64 14.388-36.2-4.359-56.506-13.172-69.109-37.214-1.889-12.386-3.104-25.652-3.646-39.853-1.104-38.094 11.424-83.484 37.752-133.16-.187 31.171 24.532 80.173 79.599 88.331-49.551-21.667-78.627-70.463-62.789-117.65 10.321-16.521 21.97-33.547 34.966-50.835 6.544-8.364 12.883-16.409 19.11-23.912-6.676 24.099 22.456 48.984 41.94 53.137-10.583-10.309-33.227-43.819 19.091-99.818-14.622 6.885-30.759 16.67-42.987 26.269 95.1-102.831 173.222-105.694 209.142-157.409-52.02 35.568-189.696 54.765-251.551 37.963 34.144 22.845 116.436 20.75 136.536 16.502-67.108 65.28-213.61 132.674-238.966 192.677 35.714-39.179 58.77-46.363 89.659-56.467-24.326 36.335-46.241 68.311-61.349 105.376-38.968 84.701-91.099 85.767-94.521 155.649 17.782-54.147 53.852-67.861 78.87-103.429-4.431 22.714-6.469 47.86-5.684 76.955.879 31.601 7.199 59.367 17.24 84.195-2.543 34.558.542 93.532 40.108 132.468-26.888-34.071-32.666-89.416-30.273-111.007 30.965 59.816 119.315 142.403 162.004 197.931-42.689-71.395-147.363-154.823-169.782-251.087M672.104 333.733c12.677 8.756 35.078 18.112 35.078 18.112v-14.931l-49.327-18.897s0 6.043 14.249 15.716M707.182 315.715v-14.781l-55.983-20.038s6.657 7.109 20.905 16.876c12.678 8.719 35.078 17.943 35.078 17.943M707.182 281.999v-14.968l-61.293-22.564s11.967 9.729 26.215 19.421c12.677 8.756 35.078 18.111 35.078 18.111M813.782 244.467l-61.181 22.564v14.968s22.438-9.336 35.022-18.111c14.267-9.692 26.159-19.421 26.159-19.421M801.89 318.017l-49.289 18.897v14.931s22.382-9.356 35.04-18.112c14.249-9.673 14.249-15.716 14.249-15.716M808.528 280.896l-55.927 20.038v14.781s22.438-9.224 35.04-17.943c14.249-9.767 20.887-16.876 20.887-16.876M548.189 466.949c-18.25 0-28.029 9.187-30.572 18.261h62.696c-4.431-8.27-14.716-18.261-32.124-18.261"/><path d="M729.882 237.076L629.209 197.28c8.527-20.263 48.018-37.533 100.673-37.533s92.09 17.27 100.616 37.533l-100.616 39.796zm74.962 124.367l-67.913 35.699V252.886l92.221-31.358-24.308 139.915zm79.337 60.153c-25.467 4.434-47.288 35.605-65.239 63.614l-2.019 3.256h-19.11l-.018 3.311c-2.039 21.648-22.551 51.079-67.951 51.079-20.96 0-36.742-6.417-47.587-15.174-9.443-7.652-15.314-17.12-18.194-26.119-1.084-3.349-1.757-6.586-2.056-9.786l-.15-3.311h-18.998l-2.056-3.256c-18.026-28.009-39.866-59.18-65.202-63.614l69.24-40.19 85.041 46.252 84.966-46.252 69.333 40.19zm93.38 106.086c-7.255 18.954-13.126 39.441-13.126 59.947v220.406h-25.617c-11.612-11.264-21.447-48.89-21.447-48.89-6.357 13.603.916 40.938 7.76 48.89h-33.003c-8.152-11.039-15.239-50.199-15.239-50.199-9.854 11.263-3.609 41.742 2.506 50.199h-21.896c-1.421-15.642 3.048-32.705 3.048-32.705-11.407-2.115-23.635-8.177-23.579-20.956 5.778 5.464 8.115 5.389 16.174 5.239l9.33-7.353c-30.945.973-32.329-32.93-7.89-48.833-24.439.785-42.764-13.752-33.807-39.816-17.464-9.018-23.597-38.505-10.714-51.453-9.331-10.14-10.883-29.954-4.918-43.538-12.322 0-26.215-4.958-33.956-13.378-.599.281-1.29.487-1.945.692 15.426-6.305 28.459-16.072 37.322-28.252h170.997zM964.491 965.5c0 45.99-21.223 80.86-56.507 100.27l12.678-25.77h-12.247l-16.231 32.97c-16.791 6.38-35.901 9.86-57.011 9.86-64.435 0-81.469 2.64-105.235 26.4-23.934-23.76-40.931-26.4-105.235-26.4-20.998 0-39.996-3.44-56.806-9.69h.486l16.212-33.14h-12.247l-14.249 28.97a131.512 131.512 0 01-9.891-5.22l11.761-23.75h-12.135l-8.732 17.7c-27.599-20.35-43.829-52.07-43.829-92.2V820.982h469.218V965.5zM645.084 701.574l19.802 2.433c1.477 10.87-1.365 29.262-8.433 39.497l-19.147-5.557c5.086-12.18 6.395-23.425 7.778-36.373zm-28.459-14.519s18.138-.879 23.261 1.067c3.815 1.571 1.234 7.914-3.627 7.24-5.161-.636-19.634-8.307-19.634-8.307zm-1.234-72.146l-16.267 59.554 5.553-96.001 25.28-21.629 12.846 28.233-32.479 93.214 8.545-62.754c.842-4.397-2.748-4.864-3.478-.617zm-12.509 99.22c-8.564 3.48-17.277-1.198-14.585-6.755 3.946 3.649 15.015 1.871 15.015 1.871l-.43 4.884zm-16.043 7.952c3.926 3.835 15.875 2.394 15.875 2.394l.467 2.358c-5.217 6.941-19.671 3.836-16.342-4.752zm-18.736-38.3c-4.562-3.05-2.506-9.692 2.562-9.692 5.516.131 12.902 6.418 20.231 9.561 0 0-19.128 2.544-22.793.131zm18.137 52.725s5.498 2.358 12.416 2.881c-.804 3.78-3.702 7.484-8.414 6.418-3.889-.861-5.647-5.725-4.002-9.299zm12.865-35.942c-9.2 2.975-13.257-3.63-12.808-9.28 17.969-6.624 25.972-2.358 31.263 1.029 4.862 3.049 8.845 11.694 15.389 17.157-1.103 7.353-3.384 18.055-6.021 25.221-18.399-4.752-19.353-20.955-12.453-30.872-3.889-4.509-7.965-5.65-15.37-3.255zm79.786 5.276l19.708 2.339c1.926 10.889-1.739 33.847-9.181 44.848l-20.082-5.8c8.022-10.552 10.976-29.3 9.555-41.387zm33.882 4.154l16.267 2.058c2.562 13.471.898 36.84-7.722 50.181l-18.942-5.539c8.321-11.244 12.173-34.445 10.397-46.7zm29.132 3.611h.355c4.226.636 8.676-.056 12.734-1.759 8.769 12.629 15.632 41.181 5.105 59.068-5.965.038-11.837-.973-17.297-2.507l-4.375-1.31c8.9-13.864 7.554-38.206 3.478-53.492zm24.831-9.598l11.5-11.283c11.799 10.235 27.187 33.192 22.363 54.952l-12.565 11.469c-2.543 2.526-5.273 4.416-7.966 6.081 7.798-19.477-2.187-49.338-13.332-61.219zm67.651 6.473a37.978 37.978 0 00-5.908 11.563l-14.005 12.91c2.804-20.525-10.939-44.773-23.523-54.652l14.94-14.613 2.917 2.975c-4.974 13.097 4.749 38.711 25.579 41.817zm-37.21-99.182c-7.367 14.07-6.619 30.292 2.02 44.998l-5.74 5.65c-25.112-3.087-35.023-40.582-35.023-40.582-.467 3.274-.804 6.698-.748 9.972-14.64-5.426-23.952-18.429-23.186-36.297 5.554 3.124 11.799 5.295 18.437 6.473l1.683-11.001c-17.539-3.05-27.786-14.033-31.731-26.98a46.127 46.127 0 01-2.338-.393c3.086.281 6.19.524 9.387.524 10.378 0 20.269-1.609 29.543-4.322 7.274 10.384 20.232 17.812 33.228 19.271-2.057 8.551-1.066 19.346 4.468 32.687zm-144.015-83.616c12.117 16.596 31.788 28.87 55.048 33.716 2.001 8.756 6.694 18.298 15.969 26.063-3.833 25.764 7.236 49.825 34.947 56.243 2.88 13.097 11.051 23.032 24.682 27.766l-19.259 22.265c-7.33 8.55-16.941 11.301-24.925 10.272l-86.069-9.786c3.702-9.579-6.189-20.675-33.414-15.922l33.825-94.599-20.662-43.95-39.098 33.398-2.88 99.295-16.585-8.195c-21.915-9.393-28.272 30.085-7.498 30.254l8.227.093c-.505 4.117.711 8.532 3.908 9.917-3.908 1.665-5.048 9.037-.149 11.619-5.012 2.357-5.61 9.841-1.627 13.116-4.357 7.259-5.011 23.125 10.078 27.092 12.285 3.274 20.045-10.066 22.644-17.775l133.862 41.481c18.998 5.444 32.461 2.432 48.205-11.414l34.947-30.572c-4.357 19.982 2.805 38.019 18.007 43.969 0 0-2.207 17.887-1.477 26.007H495.273V587.629c0-20.506-5.909-40.993-12.996-59.947h170.885zm-22.606-306.154l92.127 31.358v144.256l-67.838-35.699-24.289-139.915zm223.839-17.157c0-35.306-59.237-66.908-124.551-66.908-65.369 0-124.606 31.602-124.606 66.908l1.384 8.569 25.991 149.85-123.485 72.034c-13.164 7.727-29.618 29.019-31.712 50.386h22.531c3.721-21.348 20.625-45.073 52.187-43.651 28.516 1.553 45.344 18.916 62.135 43.651l4.32 6.567 6.226 9.786H443.179c13.294 26.774 26.047 55.213 26.047 86.066V965.5c0 97.22 74.662 143.49 155.477 143.49 62.378 0 70.792-2.81 105.235 31.62 34.33-34.43 42.688-31.62 105.235-31.62 80.796 0 155.44-46.27 155.44-143.49V587.629c0-30.853 12.617-59.292 25.957-86.066H834.836l6.302-9.786 4.338-6.567c16.66-24.735 33.582-42.098 62.097-43.651 31.413-1.422 48.41 22.303 52.113 43.651h22.513c-2.02-21.367-18.568-42.659-31.657-50.386L827.058 362.79l26.047-149.85 1.29-8.569z"/><path d="M634.839 97.087l19.352-41.18 36.032 19.12 39.678-39.216 39.753 39.217 35.939-19.122 19.24 41.181 23.86-3.705c-6.077 11.507-10.715 21.555-14.997 35.643-26.103-15.267-64.939-27.017-103.795-27.017-38.93 0-77.654 11.75-103.813 27.017-4.357-14.088-8.882-24.136-15.071-35.643l23.822 3.705zm95.1 18.037c50.542 0 91.042 16.764 113.406 34.801 0 0 6.694-40.19 29.319-75.458l-40.707 4.584-21.316-45.354-40.987 21.311-39.715-39.46-39.716 39.46-41.08-21.31-21.335 45.353-40.688-4.584c22.7 35.268 29.301 75.458 29.301 75.458 22.344-18.037 62.882-34.801 113.518-34.801z"/><path d="M771.486 33.94c5.946.506 11.163-3.947 11.668-9.86.579-5.856-8.059-21.685-8.059-21.685s-12.939 13.94-13.351 19.908c-.542 5.856 3.889 11.057 9.742 11.637M688.222 33.94c6.003-.58 10.378-5.781 9.836-11.637-.524-5.969-13.332-19.908-13.332-19.908s-8.62 15.829-8.059 21.685c.449 5.913 5.74 10.366 11.555 9.86M621.544 58.189c5.273-2.863 7.273-9.374 4.431-14.594-2.767-5.276-19.989-13.004-19.989-13.004s-1.776 17.887 1.085 23.032c2.749 5.258 9.218 7.391 14.473 4.566M27.906 465.827c10.34-15.773 24.738-29.937 44.857-46.607-13.145-1.703-23.448-5.95-36.294-15.567 27.468-7.278 85.284-28.159 134.48-18.841 16.155 2.133 25.299 8.812 19.371 12.536-26.458 17.55-59.124 58.207-82.89 105.674-20.755-25.894-12.042-59.909-7.648-69.695-41.566 25.072-52.43 37.327-71.876 32.5m44.708 6.211s22.25 41.107 35.227 50.275c39.417-39.516 68.381-96.788 132.311-129.606-30.255-49.843-70.886-41.499-73.822-85.823 19.353 5.445 38.22-7.372 38.612-30.61-20.362-11.132-27.58 11.02-33.077 5.351-4.563-4.677 23.298-5.538 20.624-34.333-26.851-.823-21.877 18.654-28.216 16.147-5.03-1.796 7.592-17.812-16.772-31.976-13.687 25.334 5.03 33.211 1.14 37.458-4.113 4.416-11.163-14.65-34.423-6.623 6.282 31.302 36.387 19.234 32.31 28.402-2.842 6.642-23.41-12.854-31.488 11.263 11.537 21.03 32.349 16.054 44.559 7.26 2.561 40.563 29.094 43.912 58.75 72.146-78.982-32.892-175.148 7.447-211.404 12.742 5.516 12.479 16.51 26.1 30.703 31.04-22.345 20.693-22.887 32.05-37.603 47 0 0 29.936 32.93 72.569-.113M695.253 441.952v23.781c8.246-9.86 24.046-7.952 24.046-7.952v34.24s-.523 16.895-6.507 24.211h34.274c-5.965-7.316-6.525-24.211-6.525-24.211v-34.24s15.8-1.908 24.008 7.952v-23.781h-69.296"/><path d="M318.367 1017.1l-16.773 28.55c-6.039-18.82-16.922-38.3-23.896-52.16-13.463 27.8-34.761 28.36-55.329 28.51 4.563-66.585-79.094-133.567-42.296-209.549 7.33-15.193 2.562-33.828-13.238-41.799-56.077-28.458-30.142 89.734-86.163 93.345 10.715-13.471 14.716-41.518 16.343-43.95-11.93 3.106-40.445 21.311-53.272-1.983 32.741-17.831 42.128-44.68 47.288-71.641 6.526-34.109 9.537-49.919 16.137-63.914 6.919-14.95 17.969-27.934 41.66-58.675-5.609.804-68.68 14.145-82.871 7.503 109.086-67.039 84.535-152.207 250.821-228.115-43.605-32.424-88.182-58.3-56.208-120.212 45.568 54.783 132.142 35.848 178.888 10.403-46.185-9.262-105.74-50.031-119.876-95.366 17.39-2.657 39.959 16.24 52.936 25.053 6.245-16.764 8.732-36.223 29.001-40.414-27.057 57.889 26.383 88.069 77.318 88.293 7.909 0 40.875-3.33 40.875-3.33-5.292-10.852-26.571-40.452-11.107-52.389 12.509 11.676 27.337 21.031 40.856 31.433 99.046 76.675-47.101 147.792-106.899 180.048-93.754 50.723-68.679 111.082-29.487 126.499-.15 6.811-4.338 9.823-10.864 12.012-27.412 9.093-53.141-10.44-74.981-23.013 1.29 37.888-1.29 74.26 40.538 95.104l-28.833 10.496c24.776 18.878 32.33 28.851 62.135 32.724-13.911 6.773-31.208 6.642-45.998 8.027 3.721 10.496 6.806 24.678 14.622 34.108-61.031 7.241-85.47-27.635-104.412-26.25-40.276 3.031-37.733 78.901 61.387 79.013l-10.284 16.989s18.773 10.964 35.994 13.059c-6.581 5.333-12.901 12.555-18.474 18.037l15.838 13.677c-40.482 7.241-51.926-35.867-78.159-15.099-40.071 31.788 48.223 98.771 132.852 88.817-7.106 9.112-26.982 22.508-35.546 29.468 68.923 65.191 34.929 126.571 63.294 171.551-59.479-3.98-103.495-47.63-113.817-94.86m77.542-73.341c19.166-15.193 35.023-22.789 34.219-59.555-28.759 14.706-110.265 13.92-144.315-32.986-9.648-13.359.673-20.057 9.948-9.561 23.298 26.456 66.51 14.482 82.254 6.848-2.487-9.13-9.499-20.955-15.389-26.026 5.89-5.8 22.588-14.444 25.972-29.318-8.919-4.828-43.492-8.308-43.492-8.308 5.553-5.369 12.472-12.816 8.339-32.63-35.34 10.87-78.963-3.892-88.911-16.97-9.742-12.873.206-24.922 8.414-16.39 17.577 18.467 104.375 39.684 136.649 7.502-11.967-3.311-25.225-14.051-27.581-20.693 29.862-2.994 53.684-20.637 55.666-42.622-16.53 0-47.756-1.197-58.377-9.205 14.323-5.295 23.373-10.478 27.898-26.531-54.618-3.312-58.956-43.913-59.255-50.63 35.564 20.525 98.223 11.376 82.03-39.16-29.6-1.59-59.424-49.507 21.971-93.513 74.027-40.115 158.151-83.335 150.709-154.453-4.843-45.54-79.749-76.58-89.248-99.612-31.263 14.893-37.546 32.181-23.429 61.126 0 0-69.67 6.922-75.167-35.961-2.375-19.234 10.452-37.233 24.251-50.967-7.834 0-60.302-14.051-76.121 28.72-29.413-20.094-54.562-19.346-74.382 1.853 31.6 18.766 51.177 83.204 103.458 102.213-37.191 20.17-97.325 11.731-132.404-50.237-33.208 50.05-52.318 99.632 18.886 152.544-129.618 59.031-128.664 171.815-241.397 225.57 11.444 30.703 35.546 30.703 66.267 25.895-48.746 63.371-7.198 129.698-84.386 156.809 7.255 25.839 21.747 46.495 50.187 38.936-8.078 12.611-13.407 12.367-26.01 26.232 42.184 26.587 92.202 7.334 103.534-77.947 2-15.248 22.961-5.706 15.725 9.243-48.092 99.463 73.504 174.304 30.478 247.295 37.94-1.59 66.829-4.57 82.629-17.35 7.76 15.29 12.397 30.46 10.733 45.41 20.961-4.24 28.571-16.65 30.011-30.91 13.762 40.1 62.826 82.91 141.341 82.91-41.66-59.39-2.861-119.69-61.705-187.571"/><path d="M209.599 779.165c14.341 14.968 31.693 16.502 64.584 14.444-36.144-4.397-56.451-13.209-69.109-37.214-1.833-12.442-3.048-25.708-3.553-39.853-1.141-38.094 11.387-83.447 37.696-133.141-.168 31.152 24.495 80.154 79.562 88.293-49.495-21.648-78.609-70.425-62.734-117.649 10.303-16.465 21.934-33.473 34.929-50.798 6.526-8.326 12.883-16.372 19.091-23.837-6.619 24.042 22.457 48.908 41.903 53.081-10.527-10.31-33.189-43.801 19.129-99.8-14.604 6.922-30.74 16.708-42.988 26.231 95.044-102.737 173.204-105.637 209.105-157.315-51.982 35.568-189.64 54.765-251.513 37.963 34.125 22.808 116.398 20.731 136.499 16.465-67.072 65.261-213.518 132.655-238.873 192.621 35.658-39.16 58.769-46.326 89.622-56.411-24.308 36.316-46.204 68.255-61.312 105.319-38.949 84.683-91.043 85.768-94.502 155.613 17.782-54.129 53.833-67.862 78.851-103.393-4.413 22.677-6.47 47.861-5.684 76.899.879 31.583 7.217 59.349 17.24 84.196-2.543 34.501.523 93.513 40.089 132.412-26.888-34.034-32.647-89.379-30.254-110.97C248.323 892.1 336.636 974.705 379.306 1030.2c-42.67-71.399-147.288-154.771-169.707-251.035M672.198 334.013c12.603 8.719 34.985 18.074 34.985 18.074v-14.893l-49.289-18.897s0 6.062 14.304 15.716M707.183 316.052v-14.875l-55.927-19.982s6.638 7.091 20.942 16.839c12.603 8.681 34.985 18.018 34.985 18.018M707.183 282.261v-14.93l-61.256-22.565s11.967 9.692 26.271 19.421c12.603 8.757 34.985 18.074 34.985 18.074M813.782 244.766l-61.181 22.565v14.93s22.419-9.317 35.04-18.074c14.249-9.729 26.141-19.421 26.141-19.421M801.871 318.297l-49.27 18.897v14.893s22.419-9.355 35.04-18.074c14.23-9.654 14.23-15.716 14.23-15.716M808.528 281.195l-55.927 19.982v14.875s22.438-9.299 35.04-18.018c14.23-9.748 20.887-16.839 20.887-16.839M548.265 467.174c-18.269 0-27.992 9.187-30.61 18.298h62.715c-4.469-8.288-14.716-18.298-32.105-18.298"/><path d="M729.901 237.376l-100.673-39.797c8.564-20.225 48.018-37.495 100.673-37.495 52.636 0 92.052 17.27 100.597 37.495l-100.597 39.797zm74.906 124.329l-67.82 35.717V253.13l92.165-31.321-24.345 139.896zm79.337 60.153c-25.449 4.415-47.307 35.568-65.22 63.614l-2.001 3.218h-19.11l-.074 3.312c-1.982 21.666-22.495 51.079-67.894 51.079-20.943 0-36.706-6.418-47.588-15.174-9.424-7.653-15.277-17.101-18.194-26.157-1.065-3.274-1.757-6.586-2.038-9.748l-.168-3.312h-18.96l-2.057-3.218c-18.007-28.046-39.846-59.199-65.183-63.614l69.203-40.227 85.041 46.251 84.947-46.251 69.296 40.227zm93.361 106.049c-7.273 18.897-13.107 39.403-13.107 59.947v220.312H938.8c-11.65-11.282-21.466-48.815-21.466-48.815-6.376 13.528.935 40.882 7.741 48.815H892.11c-8.19-11.058-15.258-50.18-15.258-50.18-9.854 11.244-3.609 41.704 2.505 50.18h-21.914c-1.365-15.642 3.104-32.705 3.104-32.705-11.462-2.114-23.654-8.139-23.635-20.899 5.815 5.426 8.171 5.332 16.193 5.164l9.311-7.335c-30.889 1.011-32.329-32.93-7.834-48.796-24.495.786-42.763-13.789-33.863-39.796-17.408-9-23.541-38.487-10.677-51.472-9.312-10.103-10.864-29.955-4.899-43.52-12.322 0-26.215-4.921-33.956-13.34-.598.281-1.309.468-1.945.692 15.426-6.305 28.497-16.091 37.322-28.252h170.941zm-13.051 437.667c0 45.956-21.223 80.886-56.525 100.216l12.677-25.73h-12.247l-16.231 32.97c-16.791 6.38-35.901 9.86-56.955 9.86-64.435 0-81.469 2.62-105.235 26.38-23.915-23.76-40.912-26.38-105.235-26.38-20.942 0-39.996-3.43-56.712-9.73h.411l16.249-33.1h-12.21l-14.248 28.96c-3.422-1.61-6.694-3.33-9.873-5.24l11.705-23.72h-12.172l-8.695 17.68c-27.599-20.32-43.792-52.05-43.792-92.166V821.095h469.088v144.479zM645.141 701.705l19.745 2.47c1.496 10.815-1.327 29.207-8.377 39.46l-19.166-5.52c5.105-12.143 6.377-23.481 7.798-36.41zm-28.497-14.481s18.175-.861 23.298 1.066c3.778 1.572 1.197 7.933-3.683 7.222-5.105-.617-19.615-8.288-19.615-8.288zm-1.197-72.09l-16.305 59.479 5.573-95.964 25.261-21.629 12.865 28.233-32.498 93.196 8.582-62.735c.804-4.36-2.748-4.865-3.478-.58zm-12.527 99.182c-8.527 3.405-17.259-1.235-14.567-6.754 3.946 3.592 14.997 1.833 14.997 1.833l-.43 4.921zm-16.044 7.933c3.964 3.798 15.894 2.358 15.894 2.358l.43 2.394c-5.217 6.942-19.633 3.799-16.324-4.752zm-18.717-38.337c-4.562-3.05-2.505-9.654 2.562-9.654 5.516.13 12.939 6.417 20.232 9.542 0 0-19.129 2.6-22.794.112zm18.138 52.781s5.46 2.283 12.415 2.844c-.804 3.798-3.758 7.466-8.414 6.418-3.889-.861-5.647-5.707-4.001-9.262zm12.846-35.961c-9.181 2.975-13.22-3.667-12.828-9.317 18.007-6.549 26.029-2.32 31.283 1.029 4.824 3.068 8.863 11.731 15.351 17.157-1.047 7.391-3.328 18.055-5.965 25.203-18.399-4.715-19.352-20.956-12.509-30.816-3.833-4.509-7.909-5.65-15.332-3.256zm79.767 5.277l19.689 2.338c1.945 10.834-1.738 33.847-9.162 44.83l-20.082-5.819c8.04-10.534 10.976-29.263 9.555-41.349zm33.882 4.153l16.248 2.021c2.6 13.509.898 36.878-7.722 50.162l-18.885-5.482c8.264-11.282 12.172-34.483 10.359-46.701zm29.113 3.611h.355c4.226.636 8.676-.093 12.734-1.758 8.769 12.592 15.65 41.162 5.105 58.993-5.965.112-11.837-.936-17.296-2.489l-4.376-1.309c8.901-13.809 7.61-38.188 3.478-53.437zm24.832-9.598l11.555-11.301c11.724 10.253 27.132 33.173 22.326 54.933l-12.584 11.544c-2.58 2.489-5.273 4.36-8.003 6.025 7.835-19.421-2.15-49.357-13.294-61.201zm67.594 6.455c-2.486 3.368-4.543 7.297-5.852 11.563l-14.005 12.854c2.804-20.469-10.958-44.736-23.523-54.596l14.884-14.613 2.973 2.994c-4.974 13.059 4.749 38.73 25.523 41.798zm-37.153-99.126c-7.368 14.051-6.62 30.254 2.056 44.96l-5.777 5.669c-25.112-3.143-35.023-40.601-35.023-40.601-.504 3.368-.804 6.661-.748 10.01-14.64-5.426-23.915-18.467-23.167-36.297 5.535 3.087 11.78 5.276 18.381 6.417l1.72-10.945c-17.539-3.069-27.786-14.033-31.675-26.999-.842-.075-1.59-.281-2.394-.337 3.142.262 6.19.505 9.387.505 10.415 0 20.269-1.609 29.544-4.34 7.273 10.384 20.231 17.83 33.189 19.271-2.019 8.495-1.028 19.309 4.507 32.687zM653.2 527.907c12.116 16.577 31.768 28.87 55.048 33.678 1.963 8.756 6.694 18.336 15.931 26.063-3.833 25.764 7.236 49.825 34.947 56.224 2.88 13.116 11.051 23.07 24.664 27.766l-19.241 22.265c-7.33 8.532-16.941 11.245-24.925 10.272l-86.032-9.804c3.721-9.561-6.189-20.619-33.414-15.866l33.826-94.655-20.643-43.913-39.118 33.398-2.86 99.276-16.623-8.195c-21.859-9.43-28.216 30.086-7.461 30.254l8.246.094c-.524 4.06.692 8.55 3.889 9.916-3.889 1.647-5.086 9-.149 11.619-4.955 2.339-5.628 9.842-1.627 13.079-4.357 7.315-5.011 23.107 10.078 27.111 12.323 3.237 20.045-10.066 22.607-17.794l133.862 41.499c18.979 5.445 32.442 2.377 48.167-11.431l34.947-30.573c-4.394 19.983 2.805 38.019 18.026 43.969 0 0-2.207 17.962-1.515 26.007H495.366V587.854c0-20.544-5.927-41.05-12.977-59.947H653.2zm-22.607-306.098l92.09 31.321v144.292l-67.838-35.717-24.252-139.896zm223.764-17.176c0-35.269-59.199-66.833-124.512-66.833-65.351 0-124.551 31.564-124.551 66.833l1.347 8.644L632.65 363.07l-123.466 72.016c-13.126 7.69-29.562 28.982-31.656 50.386h22.531c3.721-21.385 20.606-45.11 52.094-43.632 28.497 1.497 45.381 18.841 62.154 43.632l4.319 6.53 6.208 9.748H443.291c13.332 26.812 26.028 55.251 26.028 86.104v377.72c0 97.196 74.588 143.466 155.384 143.466 62.378 0 70.793-2.84 105.235 31.62 34.33-34.46 42.707-31.62 105.235-31.62 80.702 0 155.365-46.27 155.365-143.466v-377.72c0-30.853 12.642-59.292 25.972-86.104H834.836l6.246-9.748 4.338-6.53c16.697-24.791 33.638-42.135 62.153-43.632 31.395-1.478 48.354 22.247 52.075 43.632h22.476c-2.001-21.404-18.53-42.696-31.638-50.386L827.039 363.07l26.047-149.793 1.271-8.644z"/><path d="M634.838 97.424l19.409-41.162 35.976 19.121 39.715-39.235 39.716 39.235 35.938-19.121 19.185 41.162 23.915-3.667c-6.133 11.506-10.751 21.498-14.996 35.605-26.14-15.267-64.958-27.017-103.758-27.017-38.93 0-77.654 11.75-103.813 27.017-4.357-14.107-8.901-24.099-15.09-35.605l23.803 3.667zm95.1 18.036c50.542 0 91.006 16.746 113.369 34.764 0 0 6.694-40.152 29.338-75.402l-40.744 4.565-21.279-45.353-40.968 21.31-39.716-39.44-39.715 39.44-41.043-21.31-21.316 45.353-40.707-4.565c22.681 35.25 29.301 75.402 29.301 75.402 22.307-18.018 62.882-34.764 113.48-34.764z"/><path d="M771.486 34.315c5.909.486 11.163-3.986 11.668-9.823.579-5.894-8.059-21.704-8.059-21.704s-12.94 13.92-13.351 19.87c-.561 5.838 3.889 11.058 9.742 11.657M688.222 34.315c6.021-.599 10.378-5.82 9.855-11.657-.543-5.95-13.351-19.87-13.351-19.87s-8.62 15.81-8.059 21.704c.467 5.837 5.74 10.31 11.555 9.823M621.6 58.507c5.235-2.863 7.236-9.355 4.431-14.557-2.767-5.276-19.989-13.04-19.989-13.04s-1.832 17.886 1.048 23.069c2.748 5.276 9.255 7.372 14.51 4.528M28.093 466.07c10.34-15.792 24.812-29.955 44.894-46.626-13.144-1.684-23.447-5.987-36.33-15.548 27.486-7.316 85.283-28.14 134.479-18.804 16.155 2.133 25.28 8.738 19.352 12.461-26.439 17.569-59.105 58.226-82.852 105.675-20.774-25.913-11.986-59.891-7.685-69.676-41.548 25.09-52.375 37.289-71.858 32.518m44.745 6.23s22.251 41.032 35.172 50.237c39.435-39.553 68.399-96.769 132.31-129.586-30.254-49.826-70.849-41.462-73.859-85.824 19.428 5.501 38.22-7.334 38.612-30.572-20.325-11.17-27.58 11.039-33.059 5.351-4.543-4.678 23.28-5.482 20.643-34.296-26.832-.842-21.914 18.617-28.215 16.166-5.03-1.834 7.572-17.831-16.773-32.013-13.669 25.315 5.03 33.21 1.159 37.439-4.132 4.415-11.163-14.632-34.442-6.624 6.32 31.265 36.424 19.216 32.329 28.44-2.86 6.604-23.41-12.873-31.488 11.188 11.575 21.068 32.349 16.091 44.521 7.297 2.618 40.545 29.114 43.932 58.769 72.109-78.982-32.873-175.092 7.466-211.385 12.761 5.59 12.498 16.548 26.063 30.777 31.002C15.49 446.05 14.966 457.426.307 472.431c0 0 29.88 32.874 72.53-.131M695.309 442.158v23.8c8.19-9.861 24.008-7.915 24.008-7.915v34.221s-.542 16.914-6.525 24.155h34.274c-5.965-7.241-6.526-24.155-6.526-24.155v-34.221s15.8-1.946 24.009 7.915v-23.8h-69.24"/></g></svg>